<?xml version="1.0" encoding="UTF-8"?>
<!DOCTYPE svg PUBLIC "-//W3C//DTD SVG 1.1//EN" "http://www.w3.org/Graphics/SVG/1.1/DTD/svg11.dtd">
<svg xmlns="http://www.w3.org/2000/svg" version="1.1" width="128px" height="128px" style="shape-rendering:geometricPrecision; text-rendering:geometricPrecision; image-rendering:optimizeQuality; fill-rule:evenodd; clip-rule:evenodd" xmlns:xlink="http://www.w3.org/1999/xlink">
<g><path style="opacity:0.963" fill="#e4eaff" d="M 60.5,1.5 C 64.4102,1.2628 68.0769,2.09614 71.5,4C 85.9561,10.6456 100.456,17.1456 115,23.5C 115.667,39.8333 115.667,56.1667 115,72.5C 110.723,92.7718 99.5565,107.938 81.5,118C 75.5941,120.788 69.5941,123.288 63.5,125.5C 41.7124,119.697 25.879,106.697 16,86.5C 14.2595,81.9456 12.9261,77.2789 12,72.5C 11.3333,56.1667 11.3333,39.8333 12,23.5C 28.3011,16.2626 44.4678,8.92928 60.5,1.5 Z"/></g>
<g><path style="opacity:1" fill="#4294ff" d="M 63.5,10.5 C 63.5,45.8333 63.5,81.1667 63.5,116.5C 31.0963,105.217 16.4297,82.3838 19.5,48C 19.5096,41.5891 19.8429,35.2557 20.5,29C 34.7342,22.5354 49.0675,16.3688 63.5,10.5 Z"/></g>
<g><path style="opacity:1" fill="#376cfb" d="M 63.5,10.5 C 78.0444,16.1037 92.3777,22.2704 106.5,29C 107.656,42.4248 107.822,55.9248 107,69.5C 101.726,93.6106 87.226,109.277 63.5,116.5C 63.5,81.1667 63.5,45.8333 63.5,10.5 Z"/></g>
</svg>
